<svg width="198" height="198" viewBox="0 0 198 198" fill="none" xmlns="http://www.w3.org/2000/svg">
<g clip-path="url(#clip0)">
<path d="M193.583 4.59599C190.702 1.66662 186.851 0.0346183 182.742 0.000549496L182.613 0C174.201 0 167.301 6.84453 167.232 15.2573C167.198 19.3664 168.766 23.2431 171.648 26.1725C174.53 29.1019 178.38 30.7339 182.489 30.7679L182.618 30.7685C191.03 30.7685 197.93 23.924 197.999 15.5112C198.033 11.402 196.465 7.52535 193.583 4.59599ZM182.617 25.0851L182.536 25.0845C179.945 25.0631 177.517 24.0339 175.7 22.187C173.883 20.3396 172.894 17.8954 172.916 15.3046C172.959 9.99973 177.309 5.68399 182.613 5.68399L182.695 5.68454C185.286 5.70597 187.713 6.73518 189.53 8.58203C191.347 10.4294 192.336 12.8736 192.315 15.4645C192.272 20.7693 187.921 25.0851 182.617 25.0851Z" fill="#9B9B9B"/>
<path d="M15.5112 83.6163L15.3821 83.6158C6.96982 83.6158 0.069796 90.4603 0.000559502 98.8736C-0.0692265 107.356 6.77475 114.314 15.2573 114.384H15.3859C23.7981 114.384 30.6987 107.54 30.768 99.1269C30.8377 90.6444 23.9938 83.6861 15.5112 83.6163ZM15.3859 108.7L15.304 108.7C9.95523 108.656 5.63949 104.269 5.68345 98.9198C5.72741 93.6149 10.0778 89.2992 15.3815 89.2992H15.4634C20.8122 89.3432 25.1279 93.7309 25.084 99.0797C25.0406 104.385 20.6902 108.7 15.3859 108.7Z" fill="#9B9B9B"/>
<path d="M73.4045 25.723L73.2753 25.7225C64.8631 25.7225 57.9625 32.567 57.8938 40.9798C57.8241 49.4624 64.668 56.4206 73.1506 56.4904L73.2797 56.491C81.6914 56.491 88.592 49.6464 88.6612 41.2337C88.731 32.7505 81.8871 25.7923 73.4045 25.723ZM73.2792 50.8075L73.1973 50.807C67.8485 50.763 63.5328 46.3753 63.5767 41.027C63.6207 35.7222 67.9711 31.4065 73.2748 31.4065L73.3567 31.407C78.7055 31.451 83.0212 35.8387 82.9773 41.1869C82.9338 46.4918 78.5835 50.8075 73.2792 50.8075Z" fill="#9B9B9B"/>
<path d="M115.212 67.5309L115.083 67.5303C106.671 67.5303 99.7709 74.3749 99.7017 82.7876C99.6319 91.2702 106.476 98.2285 114.959 98.2983L115.088 98.2988C123.499 98.2988 130.4 91.4543 130.469 83.0415C130.539 74.5584 123.694 67.6007 115.212 67.5309ZM115.087 92.6154L115.005 92.6148C109.656 92.5709 105.341 88.1832 105.385 82.8349C105.428 77.5301 109.778 73.2143 115.082 73.2143L115.164 73.2149C120.513 73.2588 124.828 77.6466 124.784 82.9948C124.741 88.2996 120.391 92.6154 115.087 92.6154Z" fill="#9B9B9B"/>
<path d="M171.656 22.1769L121.928 72.0324L125.951 76.0461L175.68 26.1906L171.656 22.1769Z" fill="#9B9B9B"/>
<path d="M84.1548 47.9705L80.1361 51.9892L104.224 76.0769L108.243 72.0582L84.1548 47.9705Z" fill="#9B9B9B"/>
<path d="M62.3997 47.9658L22.2436 88.122L26.2624 92.1407L66.4185 51.9846L62.3997 47.9658Z" fill="#9B9B9B"/>
<path d="M163.05 58.5312V198H197.999V58.5312H163.05ZM168.734 192.316L168.734 64.2147H192.316V192.316H168.734Z" fill="#9B9B9B"/>
<path d="M108.7 117.062V198H143.649V117.062H108.7ZM137.966 192.316H114.384V122.746H137.966V192.316Z" fill="#9B9B9B"/>
<path d="M54.3496 112.881V198H89.2986V112.881H54.3496ZM83.6158 192.316H60.0336V118.565H83.6158V192.316Z" fill="#9B9B9B"/>
<path d="M0 133.785V198H34.9491L34.9496 133.785H0ZM29.2656 192.316H5.68344V139.468H29.2656C29.2656 139.468 29.2656 192.316 29.2656 192.316Z" fill="#9B9B9B"/>
</g>
<defs>
<clipPath id="clip0">
<rect width="198" height="198" fill="white"/>
</clipPath>
</defs>
</svg>
