<svg width="198" height="172" viewBox="0 0 198 172" fill="none" xmlns="http://www.w3.org/2000/svg">
<path d="M197.722 97.209C197.722 97.2081 197.722 97.2076 197.721 97.2066L160.338 3.34056C159.545 1.34615 157.284 0.372507 155.29 1.1659C155.288 1.16638 155.287 1.16687 155.285 1.16784L3.62638 61.5569C3.00789 61.8242 2.47151 62.2507 2.07166 62.7929C0.810396 63.4484 0.0136038 64.7456 0 66.1667V167.223C0 169.37 1.74031 171.11 3.88679 171.11H167.132C169.279 171.11 171.019 169.37 171.019 167.223V112.031L195.552 102.259C197.546 101.464 198.517 99.203 197.722 97.209ZM163.245 163.336H7.77358V70.0535H163.245V163.336ZM64.8511 62.2993L129.932 36.3666C135.74 42.4718 143.788 45.9418 152.215 45.9748L158.706 62.2993H64.8511ZM171.019 103.682V66.1667C171.019 64.0202 169.279 62.2799 167.132 62.2799H167.07L158.834 41.5944C158.742 41.4219 158.636 41.2577 158.515 41.1046C158.098 39.2327 156.365 37.9554 154.453 38.1118C146.613 38.8265 138.943 35.5237 134.075 29.3354C132.864 27.8405 130.735 27.4688 129.088 28.4648C128.904 28.4867 128.72 28.5207 128.54 28.5658L49.0863 60.2043C48.1248 60.5814 47.3557 61.3291 46.9525 62.2799H22.8232L154.554 9.82762L189.065 96.4837L171.019 103.682Z" fill="#9B9B9B"/>
<path d="M18.3223 137.097C25.8685 139.327 31.7736 145.225 34.0133 152.768C34.5045 154.415 36.0189 155.543 37.7369 155.543C37.9385 155.531 38.1387 155.501 38.3354 155.454C38.5098 155.504 38.6882 155.54 38.8679 155.563H132.151C132.311 155.542 132.47 155.509 132.625 155.466C134.567 155.938 136.524 154.747 136.997 152.805C136.998 152.798 137 152.791 137.002 152.784C139.236 145.233 145.142 139.327 152.693 137.093C154.524 136.533 155.662 134.708 155.359 132.817C155.411 132.629 155.448 132.436 155.472 132.242V101.148C155.449 100.953 155.41 100.761 155.355 100.573C155.66 98.6811 154.521 96.8553 152.689 96.2971C145.138 94.0636 139.233 88.1552 137.006 80.6022C136.443 78.7584 134.6 77.6176 132.699 77.9359C132.519 77.8858 132.336 77.8494 132.151 77.827H38.8679C38.6721 77.8504 38.4783 77.8892 38.2888 77.9436C36.3983 77.6424 34.5745 78.7798 34.0133 80.61C31.7779 88.1596 25.8724 94.0636 18.3223 96.2971C16.4912 96.8568 15.3533 98.6816 15.656 100.573C15.6055 100.762 15.569 100.953 15.5472 101.148V132.242C15.5695 132.425 15.606 132.606 15.656 132.782C15.3373 134.685 16.4776 136.531 18.3223 137.097ZM23.3207 102.726C31.1254 99.5911 37.3113 93.4053 40.446 85.6006H130.569C133.705 93.4053 139.892 99.5911 147.698 102.726V130.664C139.896 133.802 133.711 139.987 130.573 147.789H40.446C37.3079 139.987 31.123 133.802 23.3207 130.664V102.726Z" fill="#9B9B9B"/>
<path d="M85.5094 140.016C98.3893 140.016 108.83 129.575 108.83 116.695C108.83 103.815 98.3893 93.3742 85.5094 93.3742C72.6296 93.3742 62.1887 103.815 62.1887 116.695C62.2013 129.569 72.6349 140.003 85.5094 140.016ZM85.5094 101.148C94.0958 101.148 101.057 108.109 101.057 116.695C101.057 125.281 94.0958 132.242 85.5094 132.242C76.923 132.242 69.9623 125.281 69.9623 116.695C69.9623 108.109 76.923 101.148 85.5094 101.148Z" fill="#9B9B9B"/>
<path d="M42.7547 122.525C45.9744 122.525 48.5849 119.915 48.5849 116.695C48.5849 113.475 45.9744 110.865 42.7547 110.865C39.535 110.865 36.9245 113.475 36.9245 116.695C36.9245 119.915 39.535 122.525 42.7547 122.525ZM42.7547 114.752C43.828 114.752 44.6981 115.622 44.6981 116.695C44.6981 117.768 43.828 118.638 42.7547 118.638C41.6815 118.638 40.8113 117.768 40.8113 116.695C40.8113 115.622 41.6815 114.752 42.7547 114.752Z" fill="#9B9B9B"/>
<path d="M128.264 122.525C131.484 122.525 134.094 119.915 134.094 116.695C134.094 113.475 131.484 110.865 128.264 110.865C125.044 110.865 122.434 113.475 122.434 116.695C122.434 119.915 125.044 122.525 128.264 122.525ZM128.264 114.752C129.337 114.752 130.208 115.622 130.208 116.695C130.208 117.768 129.337 118.638 128.264 118.638C127.191 118.638 126.321 117.768 126.321 116.695C126.321 115.622 127.191 114.752 128.264 114.752Z" fill="#9B9B9B"/>
</svg>
